<svg width="56" height="32" viewBox="0 0 56 32" fill="none" xmlns="http://www.w3.org/2000/svg">
<path fill-rule="evenodd" clip-rule="evenodd" d="M56 11.6733V19.5146H53.2341V14.0149H50.5708V19.5146H47.8048V11.6733H56Z" fill="#0D0737"/>
<path fill-rule="evenodd" clip-rule="evenodd" d="M43.6539 16.0404C43.6539 15.0161 42.9948 14.4164 42.0438 14.4164C41.0635 14.4164 40.405 15.0311 40.405 16.0553C40.405 17.0208 41.0635 17.724 42.0438 17.724C43.0683 17.724 43.6539 16.9628 43.6539 16.0404ZM46.4929 16.0406C46.4929 18.3237 44.5905 19.8309 42.0291 19.8309C39.3806 19.8309 37.4487 18.236 37.4487 14.6214C37.4487 11.5191 39.4301 8.96258 42.3619 8.9138C43.6459 8.9138 46.4057 8.85303 46.4057 8.85303L45.1631 11.1346C45.1631 11.1346 42.9647 11.1381 42.6734 11.1381C41.4082 11.1381 40.2586 12.0897 40.0973 13.3923C40.7705 12.7629 41.6633 12.3969 42.7464 12.3969C45.0881 12.3969 46.4929 13.8313 46.4929 16.0406Z" fill="#0D0737"/>
<path fill-rule="evenodd" clip-rule="evenodd" d="M35.2564 17.1452C35.2564 17.1452 34.5877 17.5215 33.5897 17.5937C32.4415 17.6261 31.4203 16.9198 31.4203 15.6613C31.4203 14.4328 32.3235 13.7296 33.5608 13.7296C34.3204 13.7296 35.3258 14.2444 35.3258 14.2444C35.3258 14.2444 36.0605 12.9256 36.4416 12.2671C35.7448 11.7498 34.8145 11.4668 33.7354 11.4668C31.0084 11.4668 28.8972 13.2045 28.8972 15.6459C28.8972 18.1176 30.8818 19.8158 33.7354 19.7641C34.5338 19.7342 35.634 19.4616 36.3039 19.0413L35.2564 17.1452Z" fill="#0D0737"/>
<path fill-rule="evenodd" clip-rule="evenodd" d="M0 6.84619L3.82216 13.655L3.82236 17.8065L0.00629389 24.6019L0 6.84619Z" fill="#575FAA"/>
<path fill-rule="evenodd" clip-rule="evenodd" d="M14.6711 11.1774L18.2512 8.98988L25.5769 8.98438L14.6711 15.6453V11.1774Z" fill="#DB185B"/>
<path fill-rule="evenodd" clip-rule="evenodd" d="M14.6516 6.80724L14.6715 15.8201L10.8416 13.475V0L14.6516 6.80724Z" fill="#FCB52E"/>
<path fill-rule="evenodd" clip-rule="evenodd" d="M25.577 8.98433L18.2513 8.98984L14.6516 6.80724L10.8416 0L25.577 8.98433Z" fill="#F47732"/>
<path fill-rule="evenodd" clip-rule="evenodd" d="M14.6713 24.6403V20.2666L10.842 17.9658L10.8426 31.4526L14.6713 24.6403Z" fill="#60BB46"/>
<path fill-rule="evenodd" clip-rule="evenodd" d="M18.2422 22.473L3.82216 13.6555L0 6.84668L25.5622 22.4645L18.2422 22.473Z" fill="#128ACB"/>
<path fill-rule="evenodd" clip-rule="evenodd" d="M10.8425 31.4526L14.6712 24.6403L18.2424 22.4728L25.5624 22.4644L10.8425 31.4526Z" fill="#098441"/>
<path fill-rule="evenodd" clip-rule="evenodd" d="M0.00610352 24.6019L10.8715 17.9658L7.21772 15.7314L3.82197 17.8062L0.00610352 24.6019Z" fill="#9151A0"/>
</svg>
